<?xml version="1.0" encoding="UTF-8"?>
<svg width="64" height="64" viewBox="0 0 64 64" fill="none" xmlns="http://www.w3.org/2000/svg">
  <title>SoulForge</title>
  <defs>
    <linearGradient id="sf_g" x1="10" y1="8" x2="54" y2="56" gradientUnits="userSpaceOnUse">
      <stop stop-color="#0070F3"/>
      <stop offset="1" stop-color="#7C3AED"/>
    </linearGradient>
    <linearGradient id="sf_h" x1="14" y1="10" x2="42" y2="40" gradientUnits="userSpaceOnUse">
      <stop stop-color="#FFFFFF" stop-opacity="0.28"/>
      <stop offset="1" stop-color="#FFFFFF" stop-opacity="0"/>
    </linearGradient>
  </defs>

  <rect x="4" y="4" width="56" height="56" rx="16" fill="url(#sf_g)"/>
  <path
    d="M20 10C13.3726 10 8 15.3726 8 22V28C8 18.0589 16.0589 10 26 10H20Z"
    fill="url(#sf_h)"
  />

  <rect x="14" y="24" width="36" height="9" rx="4.5" fill="#FFFFFF"/>
  <rect x="22" y="33" width="20" height="13" rx="4" fill="#FFFFFF"/>
  <rect x="16" y="46" width="32" height="6" rx="3" fill="#FFFFFF"/>

  <path
    d="M48 14L50.2 19.4L55.6 21.6L50.2 23.8L48 29.2L45.8 23.8L40.4 21.6L45.8 19.4L48 14Z"
    fill="#FFFFFF"
  />
</svg>
